# xmcd
# 
# Track frame offsets:
#     150
#     23674
#     47966
#     69892
#     90092
#     113544
#     136603
#     167988
#     191230
#     214564
#     240961
#     266258
#     297881
# 
# Disc length: 4345
# 
# Revision: 0
# Processed by: cddbd v1.5.2PL0 Copyright (c) Steve Scherf et al.
# Submitted via: fre:ac v1.0.27
# 
DISCID=a110f70d
DTITLE=西濱哲男 - Piece of memory
DYEAR=2011
DGENRE=Blues
TTITLE0=Ikasama
TTITLE1=Station
TTITLE2=Night hawk
TTITLE3=Do It again
TTITLE4=笑って消えるさ
TTITLE5=アンタノウタ
TTITLE6=Forever
TTITLE7=She,s gone
TTITLE8=時を越えて
TTITLE9=One more song lullabye
TTITLE10=Little Wing
TTITLE11=silence of mind
TTITLE12=いつまでも友達
EXTD=
EXTT0=
EXTT1=
EXTT2=
EXTT3=
EXTT4=
EXTT5=
EXTT6=
EXTT7=
EXTT8=
EXTT9=
EXTT10=
EXTT11=
EXTT12=
PLAYORDER=
